<svg width="29" height="22" viewBox="0 0 29 22" fill="none" xmlns="http://www.w3.org/2000/svg">
<path d="M4.24438 0.248851C4.57612 -0.0829502 5.1141 -0.0829502 5.4459 0.248851C5.7777 0.580652 5.7777 1.11857 5.4459 1.45037C3.02983 3.86638 1.69929 7.08096 1.69929 10.5019C1.69929 13.9228 3.02983 17.1374 5.4459 19.5534C5.7777 19.8851 5.7777 20.4231 5.4459 20.7549C5.11353 21.0873 4.57561 21.0862 4.24438 20.7549C1.50739 18.018 6.90419e-05 14.3767 6.90419e-05 10.5019C6.90419e-05 6.62704 1.50739 2.98578 4.24438 0.248851V0.248851Z" fill="#0680F1"/>
<path d="M6.81692 2.8215C7.14872 2.48976 7.68669 2.48976 8.01844 2.8215C8.35018 3.1533 8.35018 3.69122 8.01844 4.02302C6.28903 5.75232 5.33656 8.05328 5.33656 10.502C5.33656 12.9507 6.28897 15.2516 8.01844 16.9809C8.35024 17.3127 8.35024 17.8506 8.01844 18.1824C7.68675 18.5141 7.14883 18.5143 6.81692 18.1824C4.76653 16.1322 3.63734 13.4045 3.63734 10.5019C3.63734 7.59931 4.76659 4.87172 6.81692 2.8215V2.8215Z" fill="#0680F1"/>
<path d="M9.39135 5.3959C9.72315 5.06416 10.2611 5.06416 10.5929 5.3959C10.9247 5.7277 10.9246 6.26568 10.5929 6.59742C9.55068 7.6395 8.97674 9.02617 8.97674 10.5019C8.97674 11.9776 9.55068 13.3643 10.5929 14.4064C10.9247 14.7381 10.9247 15.2761 10.5929 15.6079C10.2611 15.9396 9.72321 15.9397 9.39135 15.6079C8.02824 14.2448 7.27752 12.4315 7.27752 10.5018C7.27752 8.5722 8.02824 6.75896 9.39135 5.3959V5.3959Z" fill="#0680F1"/>
<path d="M27.3008 10.5019C27.3008 7.08094 25.9702 3.86635 23.5542 1.45035C23.2224 1.1186 23.2224 0.58063 23.5542 0.248829C23.8859 -0.0829148 24.4238 -0.0829715 24.7557 0.248829C27.4927 2.98576 29 6.62702 29 10.5019C29 14.3767 27.4927 18.018 24.7557 20.7549C24.424 21.0866 23.886 21.0868 23.5542 20.7549C23.2224 20.4231 23.2224 19.8852 23.5542 19.5534C25.9702 17.1374 27.3008 13.9228 27.3008 10.5019V10.5019Z" fill="#0680F1"/>
<path d="M23.6634 10.502C23.6634 8.05331 22.711 5.75239 20.9815 4.02304C20.6497 3.69124 20.6497 3.15332 20.9815 2.82152C21.3133 2.48972 21.8512 2.48978 22.183 2.82152C24.2334 4.87174 25.3626 7.59944 25.3626 10.502C25.3626 13.4045 24.2334 16.1322 22.183 18.1825C21.8508 18.5147 21.3129 18.5139 20.9815 18.1825C20.6498 17.8507 20.6498 17.3128 20.9815 16.981C22.711 15.2517 23.6634 12.9507 23.6634 10.502V10.502Z" fill="#0680F1"/>
<path d="M18.407 5.39595C18.7388 5.06414 19.2768 5.06414 19.6086 5.39595C20.9717 6.759 21.7224 8.57235 21.7224 10.502C21.7224 12.4316 20.9717 14.245 19.6086 15.608C19.2763 15.9402 18.7384 15.9394 18.407 15.608C18.0752 15.2762 18.0753 14.7383 18.407 14.4065C19.4492 13.3644 20.0232 11.9778 20.0232 10.502C20.0232 9.02633 19.4492 7.63965 18.407 6.59758C18.0753 6.26572 18.0753 5.72775 18.407 5.39595V5.39595Z" fill="#0680F1"/>
<path d="M14.5 6.92218C16.4739 6.92218 18.0797 8.52806 18.0797 10.5019C18.0797 12.4757 16.4738 14.0816 14.5 14.0816C12.5262 14.0816 10.9203 12.4757 10.9203 10.5019C10.9203 8.52806 12.5261 6.92218 14.5 6.92218ZM14.5 12.3823C15.5369 12.3823 16.3805 11.5387 16.3805 10.5019C16.3805 9.46501 15.5369 8.6214 14.5 8.6214C13.4631 8.6214 12.6195 9.46501 12.6195 10.5019C12.6195 11.5387 13.4631 12.3823 14.5 12.3823Z" fill="#0680F1"/>
</svg>
