<svg width="78" height="93" viewBox="0 0 78 93" fill="none" xmlns="http://www.w3.org/2000/svg">
<path d="M75.7736 14.9691L40.3847 0.276047C39.4982 -0.0919253 38.5017 -0.0921059 37.6153 0.276047L2.22643 14.9691C0.878584 15.5288 0 16.8447 0 18.3042V36.1656C0 60.7596 14.865 82.8826 37.6354 92.1767C38.51 92.5336 39.4898 92.5336 40.3646 92.1767C63.1347 82.8827 78 60.7598 78 36.1656V18.3042C78 16.8447 77.1216 15.5288 75.7736 14.9691V14.9691ZM70.7778 36.1656C70.7778 57.073 58.5 76.3197 39 84.9109C20.0211 76.5492 7.22222 57.6396 7.22222 36.1656V20.7149L39 7.52102L70.7778 20.7149V36.1656ZM35.0086 48.3376L50.5299 32.8165C51.9401 31.4064 54.2264 31.4062 55.6367 32.8165C57.0471 34.2268 57.0469 36.5132 55.6366 37.9233L37.5621 55.9978C36.1516 57.4083 33.8652 57.4078 32.4552 55.9978L22.3632 45.9059C20.9529 44.4955 20.9529 42.2092 22.3632 40.799C23.7736 39.3889 26.0599 39.3887 27.4701 40.799L35.0086 48.3376Z" fill="#0680F1"/>
</svg>
