<svg width="32" height="21" viewBox="0 0 32 21" fill="none" xmlns="http://www.w3.org/2000/svg">
<path d="M4.75732e-07 19.1538C4.87782e-07 18.8781 0.0910765 18.6024 0.280611 18.3735L3.77839 14.125C4.36423 13.4111 5.23067 13.0001 6.15373 13.0001C7.26633 13.0001 8.29523 13.6031 8.83922 14.5754L10.5401 17.6055C10.6238 17.7606 10.8109 17.923 11.0767 17.923C11.3426 17.923 11.5296 17.7606 11.6133 17.6104L13.3142 14.573C13.8582 13.6031 14.8871 13.0001 15.9997 13.0001C17.1123 13.0001 18.1412 13.6031 18.6852 14.5754L20.3861 17.6055C20.4698 17.7606 20.6568 17.923 20.9227 17.923C21.1885 17.923 21.3756 17.7606 21.4593 17.6104L23.1602 14.573C23.7042 13.6031 24.7331 13.0001 25.8457 13.0001C26.7687 13.0001 27.6352 13.4111 28.221 14.125L31.7188 18.3735C32.1545 18.8978 32.0732 19.6732 31.5489 20.1039C31.0247 20.5347 30.2493 20.4608 29.8185 19.9365L26.3207 15.688C26.2518 15.6019 26.0992 15.4616 25.8457 15.4616C25.5798 15.4616 25.3928 15.624 25.3091 15.7742L23.6082 18.8092C23.0642 19.7815 22.0353 20.3845 20.9227 20.3845C19.8101 20.3845 18.7812 19.7815 18.2372 18.8092L16.5363 15.7766C16.4526 15.624 16.2655 15.4616 15.9997 15.4616C15.7339 15.4616 15.5468 15.624 15.4631 15.7742L13.7622 18.8092C13.2182 19.7815 12.1893 20.3845 11.0767 20.3845C9.96412 20.3845 8.93522 19.7815 8.39123 18.8092L6.69034 15.7791C6.60665 15.624 6.41957 15.4616 6.15373 15.4616C5.9002 15.4616 5.74759 15.6019 5.67866 15.6855L2.18088 19.9365C1.75012 20.4608 0.974751 20.5372 0.450453 20.1039C0.152612 19.8602 4.60238e-07 19.5082 4.75732e-07 19.1538V19.1538Z" fill="#0680F1"/>
<path d="M31.9997 6.15372C31.9997 6.51064 31.8446 6.86263 31.5492 7.10632C31.0249 7.53708 30.2496 7.46324 29.8188 6.93894L26.321 2.69041C26.2521 2.6018 26.0995 2.46149 25.846 2.46149C25.5801 2.46149 25.393 2.62395 25.3093 2.7741L23.6085 5.80912C23.0645 6.78141 22.0356 7.38447 20.923 7.38447C19.8104 7.38447 18.7815 6.78141 18.2375 5.80912L16.5366 2.77902C16.4529 2.62395 16.2658 2.46149 16 2.46149C15.7341 2.46149 15.5471 2.62395 15.4634 2.7741L13.7625 5.80912C13.2185 6.78141 12.1896 7.38447 11.077 7.38447C9.9644 7.38447 8.93549 6.78141 8.39151 5.80912L6.69061 2.77902C6.60692 2.62395 6.41985 2.46149 6.15401 2.46149C5.90047 2.46149 5.74786 2.6018 5.67894 2.68549L2.18116 6.93648C1.7504 7.46078 0.975027 7.53708 0.450729 7.10386C-0.0735686 6.67064 -0.154798 5.89527 0.283348 5.37097L3.78113 1.12244C4.3645 0.411071 5.23095 4.32388e-06 6.15401 4.28353e-06C7.2666 4.23489e-06 8.29551 0.603067 8.8395 1.57536L10.5404 4.60545C10.6241 4.76052 10.8112 4.92298 11.077 4.92298C11.3428 4.92298 11.5299 4.76052 11.6136 4.61037L13.3145 1.57535C13.8585 0.603067 14.8874 3.90178e-06 16 3.85315e-06C17.1126 3.80451e-06 18.1415 0.603067 18.6855 1.57535L20.3864 4.60545C20.47 4.76052 20.6571 4.92298 20.923 4.92298C21.1888 4.92298 21.3759 4.76052 21.4596 4.61037L23.1605 1.57535C23.7045 0.603067 24.7334 3.4714e-06 25.846 3.42276e-06C26.769 3.38242e-06 27.6355 0.411074 28.2213 1.12491L31.7191 5.37343C31.9086 5.59989 31.9997 5.87804 31.9997 6.15372V6.15372Z" fill="#0680F1"/>
</svg>
